<svg id="SvgjsSvg1011" width="288" height="288" xmlns="http://www.w3.org/2000/svg" version="1.1" xmlns:xlink="http://www.w3.org/1999/xlink" xmlns:svgjs="http://svgjs.com/svgjs"><defs id="SvgjsDefs1012"></defs><g id="SvgjsG1013"><svg xmlns="http://www.w3.org/2000/svg" viewBox="0 0 40 40" width="288" height="288"><path d="m33.46 23.81-8-8a1 1 0 0 0-1.41 1.41l6.46 6.5h-18a4 4 0 0 1-4-4V7.33a1 1 0 0 0-2 0v12.35a6 6 0 0 0 6 6h17.7L24 31.94a1 1 0 0 0 0 1.42 1 1 0 0 0 1.42 0l8-8.13a1 1 0 0 0 .04-1.42Z" fill="#ffffff" class="svgShape color000000-0 selectable"></path></svg></g></svg>